<svg xmlns="http://www.w3.org/2000/svg" xmlns:xlink="http://www.w3.org/1999/xlink" width="2560" zoomAndPan="magnify" viewBox="0 0 1920 1079.999946" height="1440" preserveAspectRatio="xMidYMid meet" version="1.2"><defs><clipPath id="98573512b7"><path d="M 546 371.132812 L 709.808594 371.132812 L 709.808594 590.941406 L 546 590.941406 Z M 546 371.132812 "/></clipPath><clipPath id="4d033f20c0"><path d="M 709.027344 441.539062 C 709.027344 482.589844 679.554688 514.847656 629.746094 514.847656 L 579.9375 514.847656 L 579.9375 590.4375 L 546.265625 590.4375 L 546.265625 483.578125 L 630.105469 483.578125 C 654.65625 483.578125 675.355469 471.847656 675.355469 443.5 C 675.355469 414.828125 652.554688 402.769531 628.007812 402.769531 L 546.265625 402.769531 L 546.265625 371.488281 L 619.226562 371.488281 C 680.617188 371.488281 709.027344 400.160156 709.027344 441.539062 "/></clipPath><clipPath id="d5a5b97b88"><path d="M 924.621094 368.132812 L 1104.464844 368.132812 L 1104.464844 593.941406 L 924.621094 593.941406 Z M 924.621094 368.132812 "/></clipPath><clipPath id="ae5fd56d48"><path d="M 1104.304688 526.257812 C 1104.304688 564.378906 1070.285156 593.058594 1015.214844 593.058594 C 958.386719 593.058594 928.226562 561.457031 924.714844 557.546875 L 941.554688 529.527344 C 961.195312 549.730469 988.207031 561.789062 1015.914062 561.789062 C 1051.347656 561.789062 1070.636719 548.429688 1070.636719 527.578125 C 1070.636719 509.980469 1049.246094 499.230469 1016.964844 494.019531 C 951.375 483.589844 932.777344 461.757812 932.777344 432.4375 C 932.777344 396.917969 962.597656 368.898438 1017.664062 368.898438 C 1027.484375 368.898438 1064.664062 369.878906 1093.777344 394.96875 L 1077.636719 423.320312 C 1065.355469 412.238281 1046.414062 400.1875 1016.957031 400.1875 C 984.6875 400.1875 966.445312 411.589844 966.445312 431.140625 C 966.445312 448.078125 982.585938 455.898438 1019.765625 462.738281 C 1075.886719 472.839844 1104.296875 489.457031 1104.296875 526.277344 "/></clipPath><clipPath id="023b41f95e"><path d="M 547.097656 622.007812 L 571.304688 622.007812 L 571.304688 629.679688 L 547.097656 629.679688 Z M 547.097656 629.679688 L 555.484375 629.679688 L 555.484375 637.128906 L 547.097656 637.128906 Z M 547.097656 637.128906 L 571.316406 637.128906 L 571.316406 644.660156 L 547.097656 644.660156 Z M 547.097656 644.660156 L 555.484375 644.660156 L 555.484375 655.5 L 547.097656 655.5 Z M 547.097656 655.5 L 571.316406 655.5 L 571.316406 663.199219 L 547.097656 663.199219 Z M 547.097656 655.5 "/></clipPath><clipPath id="0f7683a474"><path d="M 637 622 L 689.824219 622 L 689.824219 663.878906 L 637 663.878906 Z M 637 622 "/></clipPath><clipPath id="744380a7b3"><path d="M 645.234375 622.007812 L 653.464844 622.007812 L 663.746094 650.75 L 674.125 622.007812 L 682.347656 622.007812 L 689.785156 663.207031 L 681.625 663.207031 L 676.867188 637.1875 L 667.445312 663.207031 L 660.007812 663.207031 L 650.664062 637.1875 L 645.796875 663.207031 L 637.566406 663.207031 Z M 645.234375 622.007812 "/></clipPath><clipPath id="200b6590f9"><path d="M 758 622 L 786.742188 622 L 786.742188 663.878906 L 758 663.878906 Z M 758 622 "/></clipPath><clipPath id="0a30455666"><path d="M 766.695312 645.167969 L 766.695312 655.730469 L 768.816406 655.730469 C 772.324219 655.730469 774.6875 655.320312 775.90625 654.5 C 777.125 653.679688 777.734375 652.480469 777.734375 650.917969 C 777.734375 649.148438 777.015625 647.75 775.585938 646.71875 C 774.15625 645.6875 771.777344 645.179688 768.445312 645.179688 Z M 766.695312 629.488281 L 766.695312 638.167969 L 768.546875 638.167969 C 770.605469 638.167969 772.136719 637.769531 773.136719 636.96875 C 774.136719 636.167969 774.636719 635.070312 774.636719 633.6875 C 774.636719 632.398438 774.164062 631.378906 773.214844 630.617188 C 772.265625 629.859375 770.824219 629.480469 768.886719 629.480469 Z M 758.253906 663.207031 L 758.253906 622.007812 L 765.226562 622.007812 C 769.265625 622.007812 772.226562 622.25 774.105469 622.738281 C 776.765625 623.390625 778.875 624.609375 780.445312 626.378906 C 782.015625 628.148438 782.796875 630.238281 782.796875 632.648438 C 782.796875 634.21875 782.4375 635.640625 781.726562 636.917969 C 781.015625 638.199219 779.847656 639.398438 778.246094 640.519531 C 780.9375 641.699219 782.90625 643.167969 784.15625 644.929688 C 785.40625 646.6875 786.027344 648.777344 786.027344 651.1875 C 786.027344 653.507812 785.386719 655.609375 784.097656 657.519531 C 782.804688 659.429688 781.144531 660.847656 779.117188 661.789062 C 777.085938 662.730469 774.277344 663.199219 770.695312 663.199219 Z M 758.253906 663.207031 "/></clipPath><clipPath id="465970f882"><path d="M 852 622 L 895 622 L 895 663.878906 L 852 663.878906 Z M 852 622 "/></clipPath><clipPath id="720f63dad4"><path d="M 873.695312 632.929688 L 867.746094 647.070312 L 879.617188 647.070312 Z M 869.367188 622.007812 L 877.925781 622.007812 L 894.984375 663.207031 L 886.207031 663.207031 L 882.734375 654.71875 L 864.636719 654.71875 L 861.027344 663.207031 L 852.253906 663.207031 Z M 869.367188 622.007812 "/></clipPath><clipPath id="36b09e36a5"><path d="M 963.253906 622.007812 L 971.695312 622.007812 L 971.695312 655.730469 L 963.253906 655.730469 Z M 963.253906 655.730469 L 983.996094 655.730469 L 983.996094 663.207031 L 963.253906 663.207031 Z M 963.253906 655.730469 "/></clipPath><clipPath id="0e85f2be4b"><path d="M 1048.515625 622 L 1091.476562 622 L 1091.476562 663.878906 L 1048.515625 663.878906 Z M 1048.515625 622 "/></clipPath><clipPath id="756ab3e3f9"><path d="M 1070.046875 632.929688 L 1064.097656 647.070312 L 1075.964844 647.070312 Z M 1065.714844 622.007812 L 1074.277344 622.007812 L 1091.335938 663.207031 L 1082.566406 663.207031 L 1079.097656 654.71875 L 1060.996094 654.71875 L 1057.386719 663.207031 L 1048.617188 663.207031 Z M 1065.714844 622.007812 "/></clipPath><clipPath id="bda031b052"><path d="M 1157.421875 620.917969 L 1204 620.917969 L 1204 664.878906 L 1157.421875 664.878906 Z M 1157.421875 620.917969 "/></clipPath><clipPath id="d20b58a18e"><path d="M 1200.554688 628.730469 L 1194.617188 634.1875 C 1190.855469 630.488281 1186.464844 628.640625 1181.457031 628.640625 C 1177.085938 628.640625 1173.4375 629.980469 1170.484375 632.667969 C 1167.535156 635.359375 1166.066406 638.628906 1166.066406 642.46875 C 1166.066406 646.449219 1167.597656 649.820312 1170.65625 652.578125 C 1173.714844 655.339844 1177.484375 656.730469 1181.976562 656.730469 C 1184.894531 656.730469 1187.355469 656.160156 1189.355469 655.019531 C 1191.355469 653.878906 1192.976562 652.097656 1194.195312 649.667969 L 1181.34375 649.667969 L 1181.34375 642.296875 L 1203.65625 642.296875 L 1203.714844 644.039062 C 1203.714844 647.640625 1202.707031 651.058594 1200.695312 654.289062 C 1198.6875 657.519531 1196.085938 659.988281 1192.886719 661.6875 C 1189.6875 663.390625 1185.945312 664.238281 1181.636719 664.238281 C 1177.035156 664.238281 1172.925781 663.308594 1169.316406 661.449219 C 1165.707031 659.589844 1162.855469 656.949219 1160.753906 653.507812 C 1158.65625 650.070312 1157.605469 646.367188 1157.605469 642.390625 C 1157.605469 636.9375 1159.546875 632.1875 1163.425781 628.160156 C 1168.027344 623.359375 1174.015625 620.957031 1181.394531 620.957031 C 1185.253906 620.957031 1188.867188 621.617188 1192.214844 622.949219 C 1195.046875 624.070312 1197.824219 625.988281 1200.535156 628.71875 "/></clipPath><clipPath id="95a390d215"><path d="M 1273.253906 622.007812 L 1297.464844 622.007812 L 1297.464844 629.679688 L 1273.253906 629.679688 Z M 1273.253906 629.679688 L 1281.636719 629.679688 L 1281.636719 637.128906 L 1273.253906 637.128906 Z M 1273.253906 637.128906 L 1297.464844 637.128906 L 1297.464844 644.660156 L 1273.253906 644.660156 Z M 1273.253906 644.660156 L 1281.636719 644.660156 L 1281.636719 655.5 L 1273.253906 655.5 Z M 1273.253906 655.5 L 1297.464844 655.5 L 1297.464844 663.199219 L 1273.253906 663.199219 Z M 1273.253906 655.5 "/></clipPath><clipPath id="8a7161371b"><path d="M 334.132812 32.425781 L 1260.332031 32.425781 L 1260.332031 1012.578125 L 334.132812 1012.578125 Z M 334.132812 32.425781 "/></clipPath><clipPath id="a4d98cd272"><path d="M 824.277344 32.429688 C 785.074219 32.429688 744.605469 37.21875 703.355469 47.519531 C 472.476562 105.1875 294.90625 335.148438 341.644531 608.796875 C 379.097656 828.078125 572.554688 1012.570312 824.277344 1012.570312 C 838.136719 1012.570312 852.1875 1012.007812 866.386719 1010.867188 C 951.484375 1004.007812 1029.105469 974.648438 1099.515625 926.296875 C 1163.796875 882.160156 1257.777344 771.929688 1259.394531 738.699219 C 1173.707031 888.789062 1022.535156 966.507812 871.046875 966.507812 C 828.90625 966.507812 786.734375 960.5 745.9375 948.347656 C 559.1875 892.757812 438.625 729.128906 428.40625 550.597656 C 415.757812 329.769531 556.726562 161.179688 726.597656 103.117188 C 774.675781 86.6875 823.003906 78.367188 871.414062 78.367188 C 915.515625 78.367188 959.675781 85.269531 1003.746094 99.230469 C 1115.976562 134.789062 1200.554688 205.578125 1260.035156 306.71875 C 1189.085938 155.4375 1022.964844 32.429688 824.277344 32.429688 Z M 824.277344 32.429688 "/></clipPath><clipPath id="5fd0924283"><path d="M 540 690 L 1271.320312 690 L 1271.320312 925.652344 L 540 925.652344 Z M 540 690 "/></clipPath><clipPath id="7b27ae50aa"><path d="M 1199.117188 690.609375 C 1191.726562 690.457031 1188.464844 693.480469 1184.464844 699.320312 C 1169.265625 721.5 1155.175781 744.980469 1136.894531 764.429688 C 1045.753906 861.429688 933.214844 901.027344 801.574219 882.128906 C 700.394531 867.597656 619.367188 817.296875 557.546875 736.019531 C 551.546875 728.128906 546.074219 719.839844 540.355469 711.738281 C 587.1875 808.21875 721.476562 933.289062 919.027344 924.640625 C 1077.753906 917.6875 1214.835938 818 1271.234375 690.796875 C 1246.425781 690.796875 1222.753906 691.109375 1199.117188 690.609375 "/></clipPath><clipPath id="ab99a8fd03"><path d="M 540 120.347656 L 1272 120.347656 L 1272 356 L 540 356 Z M 540 120.347656 "/></clipPath><clipPath id="a6e00aaee3"><path d="M 850.984375 123.078125 C 769.335938 131.890625 697.015625 164.027344 634.046875 216.679688 C 595.046875 249.289062 562.886719 287.667969 540.414062 333.71875 L 546.375 325.167969 C 559.875 308.089844 571.996094 289.628906 587.226562 274.25 C 678.285156 182.25 788.605469 144.320312 916.65625 163.148438 C 1028.003906 179.519531 1114.605469 236.910156 1175.246094 331.429688 C 1186.753906 349.367188 1197.6875 357.160156 1218.546875 354.847656 C 1235.796875 352.9375 1253.414062 354.457031 1271.585938 354.457031 C 1216.316406 230.699219 1064.636719 100.027344 850.984375 123.078125 "/></clipPath><clipPath id="e9ca4c0151"><path d="M 1367.117188 622.007812 L 1402.636719 622.007812 L 1402.636719 663.214844 L 1367.117188 663.214844 Z M 1367.117188 622.007812 "/></clipPath><clipPath id="8acbcc82d8"><path d="M 1367.117188 622.007812 L 1375.21875 622.007812 L 1394.195312 649.117188 L 1394.195312 622.007812 L 1402.636719 622.007812 L 1402.636719 663.207031 L 1394.515625 663.207031 L 1375.558594 636.175781 L 1375.558594 663.207031 L 1367.117188 663.207031 Z M 1367.117188 622.007812 "/></clipPath><clipPath id="181ec2e60e"><path d="M 1330.058594 371.484375 L 1499 371.484375 L 1499 590.496094 L 1330.058594 590.496094 Z M 1330.058594 371.484375 "/></clipPath><clipPath id="b49193814c"><path d="M 1498.425781 590.445312 L 1459.136719 590.445312 L 1400.566406 514.855469 L 1363.738281 514.855469 L 1363.738281 590.445312 L 1330.058594 590.445312 L 1330.058594 483.574219 L 1413.898438 483.574219 C 1438.449219 483.574219 1459.148438 471.84375 1459.148438 443.496094 C 1459.148438 414.824219 1439.15625 402.765625 1414.597656 402.765625 L 1330.058594 402.765625 L 1330.058594 371.484375 L 1403.015625 371.484375 C 1464.398438 371.484375 1492.816406 400.15625 1492.816406 441.535156 C 1492.816406 475.425781 1472.828125 503.117188 1437.746094 511.914062 Z M 1498.425781 590.445312 "/></clipPath><clipPath id="90d2e1bbf0"><path d="M 1470.691406 620.96875 L 1498.582031 620.96875 L 1498.582031 664.332031 L 1470.691406 664.332031 Z M 1470.691406 620.96875 "/></clipPath><clipPath id="a0c37d12cb"><path d="M 1497.800781 627.609375 L 1491.550781 632.742188 C 1489.359375 629.902344 1487.121094 628.480469 1484.839844 628.480469 C 1483.730469 628.480469 1482.832031 628.761719 1482.121094 629.3125 C 1481.410156 629.859375 1481.0625 630.480469 1481.0625 631.171875 C 1481.0625 631.859375 1481.3125 632.511719 1481.820312 633.128906 C 1482.511719 633.949219 1484.570312 635.710938 1488.011719 638.421875 C 1491.230469 640.921875 1493.179688 642.5 1493.871094 643.152344 C 1495.582031 644.761719 1496.789062 646.289062 1497.511719 647.761719 C 1498.230469 649.230469 1498.582031 650.832031 1498.582031 652.5625 C 1498.582031 655.941406 1497.320312 658.730469 1494.8125 660.941406 C 1492.300781 663.152344 1489.011719 664.242188 1484.972656 664.242188 C 1481.8125 664.242188 1479.0625 663.519531 1476.710938 662.082031 C 1474.359375 660.640625 1472.359375 658.390625 1470.691406 655.3125 L 1477.789062 651.332031 C 1479.921875 654.972656 1482.378906 656.789062 1485.160156 656.789062 C 1486.609375 656.789062 1487.832031 656.402344 1488.8125 655.609375 C 1489.789062 654.820312 1490.289062 653.921875 1490.289062 652.890625 C 1490.289062 651.960938 1489.921875 651.019531 1489.171875 650.089844 C 1488.421875 649.160156 1486.78125 647.730469 1484.25 645.800781 C 1479.421875 642.140625 1476.300781 639.320312 1474.890625 637.332031 C 1473.480469 635.339844 1472.769531 633.371094 1472.769531 631.390625 C 1472.769531 628.53125 1473.941406 626.082031 1476.289062 624.039062 C 1478.640625 622 1481.519531 620.96875 1484.972656 620.96875 C 1487.179688 620.96875 1489.289062 621.449219 1491.289062 622.402344 C 1493.289062 623.351562 1495.460938 625.089844 1497.800781 627.609375 "/></clipPath></defs><g id="38966cdce1"><g clip-rule="nonzero" clip-path="url(#98573512b7)"><g clip-rule="nonzero" clip-path="url(#4d033f20c0)"><path style=" stroke:none;fill-rule:nonzero;fill:#000000;fill-opacity:1;" d="M 329.136719 27.429688 L 1302.296875 27.429688 L 1302.296875 1017.574219 L 329.136719 1017.574219 Z M 329.136719 27.429688 "/></g></g><g clip-rule="nonzero" clip-path="url(#d5a5b97b88)"><g clip-rule="nonzero" clip-path="url(#ae5fd56d48)"><path style=" stroke:none;fill-rule:nonzero;fill:#000000;fill-opacity:1;" d="M 329.136719 27.429688 L 1302.296875 27.429688 L 1302.296875 1017.574219 L 329.136719 1017.574219 Z M 329.136719 27.429688 "/></g></g><g clip-rule="nonzero" clip-path="url(#023b41f95e)"><path style=" stroke:none;fill-rule:nonzero;fill:#000204;fill-opacity:1;" d="M 329.136719 27.429688 L 1302.296875 27.429688 L 1302.296875 1017.574219 L 329.136719 1017.574219 Z M 329.136719 27.429688 "/></g><g clip-rule="nonzero" clip-path="url(#0f7683a474)"><g clip-rule="nonzero" clip-path="url(#744380a7b3)"><path style=" stroke:none;fill-rule:nonzero;fill:#000204;fill-opacity:1;" d="M 329.136719 27.429688 L 1302.296875 27.429688 L 1302.296875 1017.574219 L 329.136719 1017.574219 Z M 329.136719 27.429688 "/></g></g><g clip-rule="nonzero" clip-path="url(#200b6590f9)"><g clip-rule="nonzero" clip-path="url(#0a30455666)"><path style=" stroke:none;fill-rule:nonzero;fill:#000000;fill-opacity:1;" d="M 329.136719 27.429688 L 1302.296875 27.429688 L 1302.296875 1017.574219 L 329.136719 1017.574219 Z M 329.136719 27.429688 "/></g></g><g clip-rule="nonzero" clip-path="url(#465970f882)"><g clip-rule="nonzero" clip-path="url(#720f63dad4)"><path style=" stroke:none;fill-rule:nonzero;fill:#000204;fill-opacity:1;" d="M 329.136719 27.429688 L 1302.296875 27.429688 L 1302.296875 1017.574219 L 329.136719 1017.574219 Z M 329.136719 27.429688 "/></g></g><g clip-rule="nonzero" clip-path="url(#36b09e36a5)"><path style=" stroke:none;fill-rule:nonzero;fill:#000204;fill-opacity:1;" d="M 329.136719 27.429688 L 1302.296875 27.429688 L 1302.296875 1017.574219 L 329.136719 1017.574219 Z M 329.136719 27.429688 "/></g><g clip-rule="nonzero" clip-path="url(#0e85f2be4b)"><g clip-rule="nonzero" clip-path="url(#756ab3e3f9)"><path style=" stroke:none;fill-rule:nonzero;fill:#000204;fill-opacity:1;" d="M 329.136719 27.429688 L 1302.296875 27.429688 L 1302.296875 1017.574219 L 329.136719 1017.574219 Z M 329.136719 27.429688 "/></g></g><g clip-rule="nonzero" clip-path="url(#bda031b052)"><g clip-rule="nonzero" clip-path="url(#d20b58a18e)"><path style=" stroke:none;fill-rule:nonzero;fill:#000204;fill-opacity:1;" d="M 329.136719 27.429688 L 1302.296875 27.429688 L 1302.296875 1017.574219 L 329.136719 1017.574219 Z M 329.136719 27.429688 "/></g></g><g clip-rule="nonzero" clip-path="url(#95a390d215)"><path style=" stroke:none;fill-rule:nonzero;fill:#000204;fill-opacity:1;" d="M 329.136719 27.429688 L 1302.296875 27.429688 L 1302.296875 1017.574219 L 329.136719 1017.574219 Z M 329.136719 27.429688 "/></g><g clip-rule="nonzero" clip-path="url(#8a7161371b)"><g clip-rule="nonzero" clip-path="url(#a4d98cd272)"><path style=" stroke:none;fill-rule:nonzero;fill:#000204;fill-opacity:1;" d="M 329.136719 27.429688 L 1302.296875 27.429688 L 1302.296875 1017.574219 L 329.136719 1017.574219 Z M 329.136719 27.429688 "/></g></g><g clip-rule="nonzero" clip-path="url(#5fd0924283)"><g clip-rule="nonzero" clip-path="url(#7b27ae50aa)"><path style=" stroke:none;fill-rule:nonzero;fill:#000204;fill-opacity:1;" d="M 329.136719 27.429688 L 1302.296875 27.429688 L 1302.296875 1017.574219 L 329.136719 1017.574219 Z M 329.136719 27.429688 "/></g></g><g clip-rule="nonzero" clip-path="url(#ab99a8fd03)"><g clip-rule="nonzero" clip-path="url(#a6e00aaee3)"><path style=" stroke:none;fill-rule:nonzero;fill:#000000;fill-opacity:1;" d="M 329.136719 27.429688 L 1302.296875 27.429688 L 1302.296875 1017.574219 L 329.136719 1017.574219 Z M 329.136719 27.429688 "/></g></g><g clip-rule="nonzero" clip-path="url(#e9ca4c0151)"><g clip-rule="nonzero" clip-path="url(#8acbcc82d8)"><path style=" stroke:none;fill-rule:nonzero;fill:#000204;fill-opacity:1;" d="M 1367.117188 622.007812 L 1402.636719 622.007812 L 1402.636719 663.214844 L 1367.117188 663.214844 Z M 1367.117188 622.007812 "/></g></g><g clip-rule="nonzero" clip-path="url(#181ec2e60e)"><g clip-rule="nonzero" clip-path="url(#b49193814c)"><path style=" stroke:none;fill-rule:nonzero;fill:#000204;fill-opacity:1;" d="M 1330.058594 371.484375 L 1498.425781 371.484375 L 1498.425781 590.496094 L 1330.058594 590.496094 Z M 1330.058594 371.484375 "/></g></g><g clip-rule="nonzero" clip-path="url(#90d2e1bbf0)"><g clip-rule="nonzero" clip-path="url(#a0c37d12cb)"><path style=" stroke:none;fill-rule:nonzero;fill:#000204;fill-opacity:1;" d="M 1470.691406 620.96875 L 1498.582031 620.96875 L 1498.582031 664.222656 L 1470.691406 664.222656 Z M 1470.691406 620.96875 "/></g></g></g></svg>